<svg id="Lager_1" data-name="Lager 1" xmlns="http://www.w3.org/2000/svg" viewBox="0 0 697.8 283.4"><defs><style>.cls-1{fill:#0058a3;}.cls-2{fill:#ffdb00;}.cls-3{fill:none;}</style></defs><title>대지 1</title><path class="cls-1" d="M697.7,283.4H0V0H697.8V283.4Z"/><path class="cls-2" d="M13.6,141.7c0,68.5,140.5,125.4,335.3,125.4s335.2-56.9,335.2-125.4S543.6,16.3,348.9,16.3,13.6,73.2,13.6,141.7Z"/><path class="cls-1" d="M235.9,87.2c-1.5,3-1.5,5.9-1.5,8.9v37.5s20.1-26.1,24.7-32.3c3.5-4.6,7.8-11.1,7.8-14.1h65.6c-4.5,3-9.5,8.4-13.6,13.4l-24,29.3s30.3,46.1,34.2,52a57.32,57.32,0,0,0,7.4,8.9H261c0-3-2.9-9.1-6.1-13.9s-20.5-31.1-20.5-31.1v36.1c0,3,0,5.9,1.5,8.9H173c1.5-3,1.5-5.9,1.5-8.9V96.1c0-3,0-5.9-1.5-8.9Zm232.9,0H347.4c1.5,3,1.5,5.9,1.5,8.9v85.8c0,3,0,5.9-1.5,8.9H468.8V162.1c-3,1.5-5.9,1.5-8.9,1.5H408.8V150h49.1V128.1H408.8V114.4h51.1c3,0,5.9,0,8.9,1.4ZM637,181.9a25,25,0,0,0,4.9,8.9H576.1c.3-3-.8-5.9-2-8.9,0,0-1-2.4-2.4-5.9l-.6-1.5H533.2l-.6,1.6s-1.1,2.9-2.1,5.9-2.1,5.9-1.7,8.9H476.9a26.22,26.22,0,0,0,4.7-8.9l31.1-85.8c1.1-3,2.2-5.9,1.8-8.9h87.7c-.8,3,.8,5.9,1.9,8.9,2.6,6.5,30.7,79.9,32.9,85.7m-74.2-29.3-9.2-24a53.05,53.05,0,0,1-2-6.8,40.08,40.08,0,0,1-1.8,6.8c-.3,1-4.2,11.5-8.7,24ZM141.7,96.1c0-3,0-5.9,1.5-8.9H74.8c1.5,3,1.5,5.9,1.5,8.9v85.8c0,3,0,5.9-1.5,8.9h68.4c-1.5-3-1.5-5.9-1.5-8.9ZM616,95.4a13.65,13.65,0,0,0,27.3.7v-.7a13.32,13.32,0,0,0-13.1-13.6h-.5a13,13,0,0,0-13.6,12.7,1,1,0,0,0-.1.9m24.5,0a10.9,10.9,0,0,1-21.8.6v-.7a10.51,10.51,0,0,1,10.1-10.9h.8a10.71,10.71,0,0,1,10.9,10.5v.5m-4.2,8.2h-2.7l-3.2-5.8h-3.5v5.8h-2.4V87.2h6.1a5.23,5.23,0,0,1,5.1,5.3,5.48,5.48,0,0,1-2.9,4.8Zm-6.1-8.2a2.76,2.76,0,0,0,3-2.7,2.83,2.83,0,0,0-2.7-3h-3.6v5.8h3.3"/><path class="cls-3" d="M768.6,354.3H-70.9V-70.9H768.6Z"/></svg>